#!OML:ASF H:\Terrain\Patient Classification 1\Walking\liu\liu.ASF
:FULLY-SPECIFIED
:DEGREES
357
root 10.052 17.1769 17.2101 6.19008 7.42211 -1.3229
lowerback -6.11359 -1.06609 -2.77043
upperback -0.555113 -1.31971 2.86905
thorax 2.98757 -0.709661 4.41899
lowerneck -21.8828 -6.69983 -14.0887
upperneck 20.0142 -8.26368 14.2164
head 11.3621 -3.18906 6.25439
rclavicle 9.01985e-015 -1.47101e-014
rhumerus -41.5647 13.0818 -84.3385
rradius 39.2398
rwrist -19.6459
rhand -27.3995 -25.4247
rfingers 7.12502
rthumb -0.805897 -55.4029
lclavicle 9.01985e-015 -1.47101e-014
lhumerus -43.6131 -13.0058 96.0824
lradius 24.289
lwrist 2.47162
lhand -7.62492 -21.7563
lfingers 7.12502
lthumb 18.2697 7.40571
rfemur -21.4916 3.01495 27.0049
rtibia 31.5524
rfoot -15.8469 -3.40565
rtoes -14.9866
lfemur -19.103 7.88212 -14.914
ltibia 68.2652
lfoot -1.89274 8.1816
ltoes -10.6913
358
root 10.0553 17.1757 17.3176 6.23784 7.19476 -1.59864
lowerback -5.92028 -0.87223 -2.33601
upperback -0.623628 -1.09121 2.85784
thorax 2.77734 -0.585121 4.18242
lowerneck -20.7522 -6.6116 -14.9201
upperneck 18.9829 -8.21851 15.4353
head 10.8683 -3.14384 6.84573
rclavicle 2.26615e-014 3.97569e-015
rhumerus -41.207 13.4871 -84.2621
rradius 39.9356
rwrist -19.7552
rhand -27.135 -25.464
rfingers 7.12502
rthumb -0.550522 -55.443
lclavicle 2.26615e-014 3.97569e-015
lhumerus -44.111 -12.8624 95.9361
lradius 25.0085
lwrist 3.20746
lhand -9.54585 -22.9057
lfingers 7.12502
lthumb 16.4209 6.41924
rfemur -21.0765 3.16108 27.3827
rtibia 31.4257
rfoot -16.3125 -3.20568
rtoes -14.3559
lfemur -20.819 8.06836 -14.9149
ltibia 68.824
lfoot -2.57176 7.62633
ltoes -12.3585
359
root 10.0573 17.1826 17.4255 6.38482 6.94583 -1.70666
lowerback -5.70079 -0.75073 -2.10929
upperback -0.867534 -0.940607 2.79507
thorax 2.38396 -0.496877 4.0029
lowerneck -20.0402 -6.44649 -14.7353
upperneck 18.8264 -8.09711 15.3276
head 10.6401 -3.11499 6.78683
rclavicle -8.97016e-015 -1.43125e-014
rhumerus -41.1872 13.853 -84.3419
rradius 40.5637
rwrist -19.8437
rhand -26.8808 -26.2108
rfingers 7.12502
rthumb -0.304933 -56.1903
lclavicle -8.97016e-015 -1.43125e-014
lhumerus -44.8299 -12.5794 95.7863
lradius 25.5317
lwrist 3.95944
lhand -11.8461 -24.357
lfingers 7.12502
lthumb 14.2053 5.13722
rfemur -20.7873 3.24499 27.5863
rtibia 31.302
rfoot -16.6514 -3.05532
rtoes -14.5648
lfemur -22.5644 8.2686 -15.1187
ltibia 69.1775
lfoot -3.74993 7.39121
ltoes -10.3315
360
root 10.0584 17.188 17.5493 6.4424 6.65056 -1.57001
lowerback -5.6057 -0.591221 -2.17513
upperback -0.824787 -0.723305 2.71768
thorax 2.35599 -0.388776 3.97708
lowerneck -21.1003 -6.67905 -14.1152
upperneck 19.896 -8.34267 14.3073
head 11.1888 -3.24652 6.27864
rclavicle 7.7526e-015 7.95139e-015
rhumerus -40.7136 14.2981 -84.2124
rradius 40.9719
rwrist -20.159
rhand -26.9189 -26.6275
rfingers 7.12502
rthumb -0.341741 -56.607
lclavicle 7.7526e-015 7.95139e-015
lhumerus -44.9511 -12.5508 95.7474
lradius 25.7077
lwrist 4.51342
lhand -13.2285 -25.3087
lfingers 7.12502
lthumb 12.8729 4.27427
rfemur -20.3063 3.09969 27.5565
rtibia 31.1915
rfoot -17.1107 -2.92942
rtoes -17.1132
lfemur -23.9484 8.31202 -15.642
ltibia 69.2872
lfoot -4.76194 7.46475
ltoes -8.32135
361
root 10.0573 17.1875 17.6742 6.37403 6.33529 -1.48013
lowerback -5.60976 -0.427058 -2.24967
upperback -0.556484 -0.501207 2.65454
thorax 2.6163 -0.28675 3.97106
lowerneck -23.1154 -7.00968 -13.1173
upperneck 21.6327 -8.66851 12.7904
head 12.1481 -3.40971 5.50633
rclavicle 1.0138e-014 -1.27222e-014
rhumerus -39.867 14.6634 -83.9574
rradius 41.5292
rwrist -20.235
rhand -27.7477 -25.9247
rfingers 7.12502
rthumb -1.14227 -55.9014
lclavicle 1.0138e-014 -1.27222e-014
lhumerus -44.8106 -12.8219 95.7554
lradius 25.9521
lwrist 5.16773
lhand -13.9489 -25.6111
lfingers 7.12502
lthumb 12.1783 4.01436
rfemur -19.6915 3.0384 27.5702
rtibia 31.1007
rfoot -17.6675 -2.84316
rtoes -19.0141
lfemur -25.1651 8.36018 -16.0973
ltibia 69.2197
lfoot -5.32876 7.48691
ltoes -8.17077
362
root 10.0512 17.1799 17.7826 6.38122 6.05865 -1.62811
lowerback -5.46246 -0.379236 -2.19103
upperback -0.646187 -0.441716 2.6596
thorax 2.43562 -0.252067 3.94756
lowerneck -22.5524 -6.80225 -13.0188
upperneck 21.3832 -8.51012 12.9927
head 11.9254 -3.32696 5.59386
rclavicle 1.9133e-014 -2.10712e-014
rhumerus -39.7801 15.0847 -84.0004
rradius 42.4418
rwrist -20.3096
rhand -28.7758 -24.9589
rfingers 7.12502
rthumb -2.13516 -54.928
lclavicle 1.9133e-014 -2.10712e-014
lhumerus -45.114 -12.4675 95.4482
lradius 26.0799
lwrist 5.48349
lhand -13.9072 -25.7737
lfingers 7.12502
lthumb 12.2186 3.84938
rfemur -19.2973 3.4191 27.7943
rtibia 31.0369
rfoot -18.1767 -2.80403
rtoes -19.1173
lfemur -26.6657 8.64338 -16.2366
ltibia 69.052
lfoot -5.96785 7.29061
ltoes -9.14733
363
root 10.0527 17.1813 17.8957 6.44048 5.8296 -1.64701
lowerback -5.29549 -0.366251 -2.17026
upperback -0.885401 -0.424594 2.6595
thorax 2.09374 -0.234054 3.93664
lowerneck -20.1175 -6.36904 -14.0888
upperneck 19.4142 -8.10117 14.7475
head 10.8069 -3.12528 6.47229
rclavicle -1.26974e-014 1.15295e-014
rhumerus -39.9886 15.5933 -84.0706
rradius 43.3184
rwrist -20.5808
rhand -29.2138 -24.6451
rfingers 7.12502
rthumb -2.55821 -54.6095
lclavicle -1.26974e-014 1.15295e-014
lhumerus -45.5171 -11.3594 94.7565
lradius 26.2199
lwrist 4.99707
lhand -13.0905 -25.5826
lfingers 7.12502
lthumb 13.006 3.99197
rfemur -19.0427 3.56399 27.8564
rtibia 31.0495
rfoot -18.5873 -2.86635
rtoes -20.915
lfemur -28.1101 8.786 -16.6041
ltibia 68.678
lfoot -6.9015 7.42991
ltoes -10.0646
364
root 10.0605 17.1775 18.0195 6.25162 5.37623 -1.42622
lowerback -5.15211 -0.20364 -2.29337
upperback -0.726012 -0.202372 2.58276
thorax 2.1591 -0.127212 3.94246
lowerneck -20.0009 -6.36092 -14.1637
upperneck 19.245 -8.05033 14.7033
head 10.7155 -3.11763 6.46995
rclavicle -1.98785e-016 -1.35174e-014
rhumerus -39.5256 15.9443 -83.8405
rradius 44.0095
rwrist -20.8045
rhand -29.2394 -24.5814
rfingers 7.12502
rthumb -2.58291 -54.5455
lclavicle -1.98785e-016 -1.35174e-014
lhumerus -45.4903 -10.8566 94.3923
lradius 26.4935
lwrist 5.04461
lhand -12.753 -25.1941
lfingers 7.12502
lthumb 13.3313 4.35944
rfemur -18.1407 3.73206 27.6562
rtibia 31.067
rfoot -19.1046 -3.04134
rtoes -22.2456
lfemur -29.0374 8.83299 -17.2687
ltibia 68.0785
lfoot -8.19075 7.93567
ltoes -9.04525
